<?xml version="1.0" standalone="no"?>
<!DOCTYPE svg PUBLIC "-//W3C//DTD SVG 20010904//EN"
 "http://www.w3.org/TR/2001/REC-SVG-20010904/DTD/svg10.dtd">
<svg version="1.0" xmlns="http://www.w3.org/2000/svg"
 width="1049.000000pt" height="275.000000pt" viewBox="0 0 1049.000000 275.000000"
 preserveAspectRatio="xMidYMid meet">

<g transform="translate(0.000000,275.000000) scale(0.100000,-0.100000)"
fill="#000000" stroke="none">
<path d="M432 2545 c2 -8 43 -57 91 -110 l88 -95 233 0 232 0 44 -45 44 -45
-67 -68 c-101 -102 -99 -105 86 -100 l154 3 81 74 c45 40 82 78 82 85 0 6 -69
80 -153 164 l-152 152 -383 0 c-331 0 -383 -2 -380 -15z"/>
<path d="M1780 2372 l0 -187 153 -153 152 -152 285 0 285 0 153 153 152 152 0
78 0 77 470 0 470 0 0 -405 0 -405 135 0 135 0 0 200 0 200 150 0 150 0 0 110
0 110 -150 0 -150 0 0 205 0 205 -33 0 c-28 0 -46 -13 -122 -90 l-90 -91 -5
88 -5 88 -612 3 -613 2 0 -153 0 -152 -78 -78 -77 -77 -165 0 -165 0 -78 78
-77 77 0 153 0 152 -135 0 -135 0 0 -188z"/>
<path d="M4550 2045 l0 -515 135 0 135 0 0 405 0 405 218 0 217 0 78 -78 77
-77 0 -328 0 -327 135 0 135 0 0 363 0 362 -153 153 -152 152 -413 0 -412 0 0
-515z"/>
<path d="M5460 2547 c0 -7 44 -56 98 -110 l97 -97 75 0 75 0 78 -78 77 -77 0
-328 0 -327 135 0 135 0 0 363 0 362 -153 153 -152 152 -233 0 c-181 0 -232
-3 -232 -13z"/>
<path d="M670 1895 l0 -365 135 0 135 0 0 365 0 365 -135 0 -135 0 0 -365z"/>
<path d="M4857 2254 c-4 -4 -7 -169 -7 -366 l0 -358 140 0 140 0 -2 363 -3
362 -131 3 c-71 1 -133 -1 -137 -4z"/>
<path d="M3290 1890 l0 -360 135 0 135 0 0 360 0 360 -135 0 -135 0 0 -360z"/>
<path d="M1020 1890 l0 -110 103 0 102 0 125 -125 125 -125 157 0 c119 0 158
3 158 12 0 7 -100 113 -222 235 l-223 223 -162 0 -163 0 0 -110z"/>
<path d="M2230 1690 l0 -160 135 0 135 0 0 160 0 160 -135 0 -135 0 0 -160z"/>
<path d="M2919 1113 c-55 -53 -99 -103 -99 -110 0 -11 86 -13 455 -13 323 0
455 3 455 11 0 6 -41 55 -91 110 l-92 99 -265 0 -265 0 -98 -97z"/>
<path d="M3877 1112 c-53 -53 -97 -103 -97 -110 0 -9 158 -12 728 -12 l729 0
78 -80 78 -80 -8 -325 -7 -325 141 0 141 0 0 363 0 362 -153 153 -152 152
-690 0 -690 0 -98 -98z"/>
<path d="M5450 1192 c0 -9 42 -59 93 -110 l92 -92 458 0 c405 0 457 2 457 15
0 9 -41 58 -91 110 l-92 95 -458 0 c-432 0 -459 -1 -459 -18z"/>
<path d="M6650 1137 c0 -65 -3 -76 -25 -97 -50 -47 -41 -50 173 -50 l198 0 47
-48 47 -48 -65 -64 c-36 -35 -65 -70 -65 -77 0 -10 36 -13 157 -13 l158 0 72
72 c40 40 73 77 73 83 0 6 -69 79 -153 163 l-152 152 -233 0 -232 0 0 -73z"/>
<path d="M7460 1197 c0 -7 44 -56 98 -110 l97 -97 150 0 150 0 405 -405 405
-405 737 0 c590 0 738 3 738 13 0 7 -44 56 -98 110 l-97 97 -355 2 -355 3 -3
403 -2 402 -135 0 -135 0 0 -492 0 -493 -493 493 -492 492 -308 0 c-241 0
-307 -3 -307 -13z"/>
<path d="M2730 903 c-25 -5 -320 -288 -320 -308 0 -6 91 -101 203 -213 l202
-202 458 0 c362 0 457 3 457 13 0 7 -44 56 -98 110 l-97 97 -300 0 -300 0 -98
98 -97 97 140 140 c77 77 140 145 140 152 0 9 -21 13 -74 13 -40 0 -100 2
-132 4 -32 3 -70 2 -84 -1z"/>
<path d="M4730 545 l0 -365 135 0 135 0 0 365 0 365 -135 0 -135 0 0 -365z"/>
<path d="M7818 903 l-118 -4 0 -337 0 -337 -213 213 -212 212 -163 0 -162 0 0
-110 0 -110 103 0 102 0 125 -125 125 -125 282 0 283 0 0 125 0 125 230 0
c190 0 230 2 230 14 0 8 -46 57 -103 110 l-104 95 -124 3 -124 3 -3 128 c-2
113 -4 127 -20 125 -9 -1 -70 -4 -134 -5z"/>
<path d="M3770 540 l0 -360 460 0 c365 0 460 3 460 13 0 7 -44 56 -98 110
l-97 97 -228 0 -227 0 0 115 0 115 153 0 152 0 98 98 c53 53 97 105 97 115 0
17 -15 18 -247 16 -248 -2 -248 -2 -251 19 -3 21 -8 22 -138 22 l-134 0 0
-360z"/>
<path d="M5990 540 l0 -360 135 0 135 0 0 360 0 360 -135 0 -135 0 0 -360z"/>
<path d="M6590 540 l0 -360 135 0 135 0 0 360 0 360 -135 0 -135 0 0 -360z"/>
</g>
</svg>
